# MagicaVoxel @ Ephtracy

# group
o 

# material
mtllib Tile.mtl
usemtl palette

# normals
vn -1 0 0
vn 1 0 0
vn 0 0 1
vn 0 0 -1
vn 0 -1 0
vn 0 1 0

# texcoords
vt 0.537109 0.5
vt 0.724609 0.5
vt 0.892578 0.5

# verts
v -2 0 2
v -2 0 -2
v -2 2.2 2
v -2 2.2 1.6
v -2 2.2 1.2
v -2 2.2 0.5
v -2 2.2 0.2
v -2 2.2 -0.8
v -2 2.2 -1.1
v -2 2.2 -1.8
v -2 2.5 1.6
v -2 2.5 1.2
v -2 2.5 -1.8
v -2 2.5 -2
v -2 2.6 0.5
v -2 2.6 0.2
v -2 2.7 -0.8
v -2 2.7 -1.1
v -2 4 2
v -2 4 -2
v 2 0 2
v 2 0 -2
v 2 2.2 2
v 2 2.2 1.4
v 2 2.2 1.2
v 2 2.2 0.5
v 2 2.2 0.3
v 2 2.2 -0.7
v 2 2.2 -1.1
v 2 2.2 -1.8
v 2 2.5 0.5
v 2 2.5 0.3
v 2 2.5 -0.7
v 2 2.5 -0.8
v 2 2.5 -1
v 2 2.5 -1.1
v 2 2.5 -1.8
v 2 2.5 -2
v 2 2.6 1.4
v 2 2.6 1.2
v 2 2.6 -0.8
v 2 2.6 -1
v 2 4 2
v 2 4 -2
v -2 0 2
v -2 2.2 2
v -2 4 2
v -1.8 2.2 2
v -1.8 2.4 2
v -1.7 2.4 2
v -1.7 2.5 2
v -1.5 2.2 2
v -1.5 2.5 2
v -1 2.2 2
v -1 2.7 2
v -0.8 2.2 2
v -0.8 2.7 2
v 0.4 2.2 2
v 0.4 2.7 2
v 0.8 2.2 2
v 0.8 2.7 2
v 1.6 2.2 2
v 1.6 2.5 2
v 1.8 2.2 2
v 1.8 2.5 2
v 2 0 2
v 2 2.2 2
v 2 4 2
v -2 0 -2
v -2 2.5 -2
v -2 4 -2
v -1.8 2.2 -2
v -1.8 2.5 -2
v -1.1 2.2 -2
v -1.1 2.5 -2
v -0.9 2.2 -2
v -0.9 2.5 -2
v -0.2 2.2 -2
v -0.2 2.5 -2
v 2.38419e-07 2.2 -2
v 2.38419e-07 2.5 -2
v 0.5 2.2 -2
v 0.5 2.7 -2
v 0.6 2.7 -2
v 0.6 2.8 -2
v 0.8 2.7 -2
v 0.8 2.8 -2
v 0.9 2.2 -2
v 0.9 2.7 -2
v 1.8 2.2 -2
v 1.8 2.5 -2
v 2 0 -2
v 2 2.5 -2
v 2 4 -2
v -2 0 2
v 2 0 2
v -1.9 0 1.9
v 1.9 0 1.9
v -1.9 0 -1.9
v 1.9 0 -1.9
v -2 0 -2
v 2 0 -2
v -2 4 2
v 2 4 2
v 0.9 4 1.3
v 1.1 4 1.3
v -0.5 4 1.2
v -0.3 4 1.2
v 0.9 4 0.8
v 1.1 4 0.8
v -0.5 4 0.7
v -0.3 4 0.7
v -1.2 4 0.2
v -1 4 0.2
v 0.8 4 0.2
v 1 4 0.2
v 0.8 4 -0.3
v 1 4 -0.3
v -1.2 4 -0.6
v -1 4 -0.6
v -0.4 4 -0.7
v -0.2 4 -0.7
v -0.4 4 -1.3
v -0.2 4 -1.3
v -2 4 -2
v 2 4 -2

# faces
f 3/1/1 2/1/1 1/1/1
f 4/1/1 2/1/1 3/1/1
f 5/1/1 2/1/1 4/1/1
f 6/1/1 2/1/1 5/1/1
f 7/1/1 2/1/1 6/1/1
f 8/1/1 2/1/1 7/1/1
f 9/1/1 2/1/1 8/1/1
f 10/1/1 2/1/1 9/1/1
f 11/2/1 4/2/1 3/2/1
f 11/1/1 5/1/1 4/1/1
f 12/2/1 6/2/1 5/2/1
f 12/1/1 5/1/1 11/1/1
f 13/1/1 2/1/1 10/1/1
f 13/2/1 10/2/1 9/2/1
f 14/1/1 2/1/1 13/1/1
f 15/2/1 6/2/1 12/2/1
f 15/2/1 12/2/1 11/2/1
f 15/1/1 7/1/1 6/1/1
f 16/2/1 8/2/1 7/2/1
f 16/1/1 7/1/1 15/1/1
f 17/1/1 9/1/1 8/1/1
f 17/2/1 8/2/1 16/2/1
f 17/2/1 16/2/1 15/2/1
f 18/2/1 14/2/1 13/2/1
f 18/1/1 9/1/1 17/1/1
f 18/2/1 13/2/1 9/2/1
f 19/2/1 17/2/1 15/2/1
f 19/2/1 11/2/1 3/2/1
f 19/2/1 18/2/1 17/2/1
f 19/2/1 15/2/1 11/2/1
f 20/2/1 14/2/1 18/2/1
f 20/2/1 18/2/1 19/2/1
f 21/1/2 22/1/2 23/1/2
f 23/1/2 22/1/2 24/1/2
f 24/1/2 22/1/2 25/1/2
f 25/1/2 22/1/2 26/1/2
f 26/1/2 22/1/2 27/1/2
f 27/1/2 22/1/2 28/1/2
f 28/1/2 22/1/2 29/1/2
f 29/1/2 22/1/2 30/1/2
f 25/2/2 26/2/2 31/2/2
f 26/1/2 27/1/2 31/1/2
f 27/2/2 28/2/2 32/2/2
f 31/1/2 27/1/2 32/1/2
f 28/1/2 29/1/2 33/1/2
f 32/2/2 28/2/2 33/2/2
f 33/1/2 29/1/2 34/1/2
f 34/1/2 29/1/2 35/1/2
f 29/2/2 30/2/2 36/2/2
f 35/1/2 29/1/2 36/1/2
f 30/1/2 22/1/2 37/1/2
f 36/2/2 30/2/2 37/2/2
f 37/1/2 22/1/2 38/1/2
f 23/2/2 24/2/2 39/2/2
f 24/1/2 25/1/2 39/1/2
f 25/2/2 31/2/2 40/2/2
f 39/1/2 25/1/2 40/1/2
f 31/2/2 32/2/2 40/2/2
f 32/2/2 33/2/2 40/2/2
f 33/2/2 34/2/2 40/2/2
f 34/1/2 35/1/2 41/1/2
f 40/2/2 34/2/2 41/2/2
f 37/2/2 38/2/2 42/2/2
f 41/1/2 35/1/2 42/1/2
f 35/2/2 36/2/2 42/2/2
f 36/2/2 37/2/2 42/2/2
f 40/2/2 41/2/2 43/2/2
f 23/2/2 39/2/2 43/2/2
f 41/2/2 42/2/2 43/2/2
f 39/2/2 40/2/2 43/2/2
f 42/2/2 38/2/2 44/2/2
f 43/2/2 42/2/2 44/2/2
f 48/1/3 46/1/3 45/1/3
f 48/2/3 47/2/3 46/2/3
f 49/2/3 47/2/3 48/2/3
f 50/1/3 49/1/3 48/1/3
f 50/2/3 47/2/3 49/2/3
f 51/2/3 47/2/3 50/2/3
f 52/1/3 48/1/3 45/1/3
f 52/1/3 50/1/3 48/1/3
f 52/1/3 51/1/3 50/1/3
f 53/2/3 47/2/3 51/2/3
f 53/1/3 51/1/3 52/1/3
f 54/1/3 52/1/3 45/1/3
f 54/2/3 53/2/3 52/2/3
f 55/2/3 47/2/3 53/2/3
f 55/2/3 53/2/3 54/2/3
f 56/1/3 54/1/3 45/1/3
f 56/1/3 55/1/3 54/1/3
f 57/2/3 47/2/3 55/2/3
f 57/1/3 55/1/3 56/1/3
f 58/1/3 56/1/3 45/1/3
f 58/2/3 57/2/3 56/2/3
f 59/2/3 47/2/3 57/2/3
f 59/2/3 57/2/3 58/2/3
f 60/1/3 58/1/3 45/1/3
f 60/1/3 59/1/3 58/1/3
f 61/2/3 47/2/3 59/2/3
f 61/1/3 59/1/3 60/1/3
f 62/1/3 60/1/3 45/1/3
f 62/2/3 61/2/3 60/2/3
f 63/2/3 61/2/3 62/2/3
f 64/1/3 62/1/3 45/1/3
f 64/1/3 63/1/3 62/1/3
f 65/2/3 61/2/3 63/2/3
f 65/1/3 63/1/3 64/1/3
f 66/1/3 64/1/3 45/1/3
f 67/2/3 65/2/3 64/2/3
f 67/1/3 64/1/3 66/1/3
f 68/2/3 47/2/3 61/2/3
f 68/2/3 65/2/3 67/2/3
f 68/2/3 61/2/3 65/2/3
f 69/1/4 70/1/4 72/1/4
f 70/2/4 71/2/4 73/2/4
f 72/1/4 70/1/4 73/1/4
f 69/1/4 72/1/4 74/1/4
f 72/2/4 73/2/4 74/2/4
f 73/2/4 71/2/4 75/2/4
f 74/2/4 73/2/4 75/2/4
f 69/1/4 74/1/4 76/1/4
f 74/1/4 75/1/4 76/1/4
f 75/2/4 71/2/4 77/2/4
f 76/1/4 75/1/4 77/1/4
f 69/1/4 76/1/4 78/1/4
f 76/2/4 77/2/4 78/2/4
f 77/2/4 71/2/4 79/2/4
f 78/2/4 77/2/4 79/2/4
f 69/1/4 78/1/4 80/1/4
f 78/1/4 79/1/4 80/1/4
f 79/2/4 71/2/4 81/2/4
f 80/1/4 79/1/4 81/1/4
f 69/1/4 80/1/4 82/1/4
f 80/2/4 81/2/4 82/2/4
f 81/2/4 71/2/4 83/2/4
f 82/2/4 81/2/4 83/2/4
f 82/1/4 83/1/4 84/1/4
f 83/2/4 71/2/4 84/2/4
f 84/2/4 71/2/4 85/2/4
f 82/1/4 84/1/4 86/1/4
f 84/1/4 85/1/4 86/1/4
f 85/2/4 71/2/4 87/2/4
f 86/1/4 85/1/4 87/1/4
f 69/1/4 82/1/4 88/1/4
f 82/1/4 86/1/4 88/1/4
f 86/2/4 87/2/4 89/2/4
f 88/1/4 86/1/4 89/1/4
f 69/1/4 88/1/4 90/1/4
f 88/2/4 89/2/4 90/2/4
f 90/2/4 89/2/4 91/2/4
f 69/1/4 90/1/4 92/1/4
f 90/1/4 91/1/4 92/1/4
f 91/2/4 89/2/4 93/2/4
f 92/1/4 91/1/4 93/1/4
f 87/2/4 71/2/4 94/2/4
f 93/2/4 89/2/4 94/2/4
f 89/2/4 87/2/4 94/2/4
f 97/1/5 96/1/5 95/1/5
f 98/1/5 96/1/5 97/1/5
f 99/1/5 97/1/5 95/1/5
f 99/2/5 98/2/5 97/2/5
f 100/1/5 96/1/5 98/1/5
f 100/2/5 98/2/5 99/2/5
f 101/1/5 99/1/5 95/1/5
f 101/1/5 100/1/5 99/1/5
f 102/1/5 96/1/5 100/1/5
f 102/1/5 100/1/5 101/1/5
f 103/2/6 104/2/6 105/2/6
f 105/2/6 104/2/6 106/2/6
f 103/2/6 105/2/6 107/2/6
f 107/2/6 105/2/6 108/2/6
f 105/3/6 106/3/6 109/3/6
f 108/2/6 105/2/6 109/2/6
f 106/2/6 104/2/6 110/2/6
f 109/3/6 106/3/6 110/3/6
f 107/3/6 108/3/6 111/3/6
f 103/2/6 107/2/6 111/2/6
f 108/2/6 109/2/6 112/2/6
f 111/3/6 108/3/6 112/3/6
f 109/2/6 110/2/6 112/2/6
f 103/2/6 111/2/6 113/2/6
f 111/2/6 112/2/6 113/2/6
f 113/2/6 112/2/6 114/2/6
f 112/2/6 110/2/6 115/2/6
f 114/2/6 112/2/6 115/2/6
f 115/2/6 110/2/6 116/2/6
f 114/2/6 115/2/6 117/2/6
f 115/3/6 116/3/6 117/3/6
f 116/2/6 110/2/6 118/2/6
f 117/3/6 116/3/6 118/3/6
f 113/3/6 114/3/6 119/3/6
f 103/2/6 113/2/6 119/2/6
f 117/2/6 118/2/6 120/2/6
f 119/3/6 114/3/6 120/3/6
f 114/2/6 117/2/6 120/2/6
f 119/2/6 120/2/6 121/2/6
f 120/2/6 118/2/6 121/2/6
f 121/2/6 118/2/6 122/2/6
f 119/2/6 121/2/6 123/2/6
f 121/3/6 122/3/6 123/3/6
f 122/2/6 118/2/6 124/2/6
f 123/3/6 122/3/6 124/3/6
f 103/2/6 119/2/6 125/2/6
f 119/2/6 123/2/6 125/2/6
f 123/2/6 124/2/6 125/2/6
f 118/2/6 110/2/6 126/2/6
f 125/2/6 124/2/6 126/2/6
f 110/2/6 104/2/6 126/2/6
f 124/2/6 118/2/6 126/2/6
