# MagicaVoxel @ Ephtracy

# group
o 

# material
mtllib Glider.mtl
usemtl palette

# normals
vn -1 0 0
vn 1 0 0
vn 0 0 1
vn 0 0 -1
vn 0 -1 0
vn 0 1 0

# texcoords
vt 0.279297 0.5
vt 0.396484 0.5
vt 0.841797 0.5
vt 0.958984 0.5

# verts
v -1 0 -0.8
v -1 0 -1.1
v -1 0.1 -0.8
v -1 0.1 -1.1
v -0.9 0 -0.5
v -0.9 0 -0.8
v -0.9 0.1 -0.5
v -0.9 0.1 -0.8
v -0.8 0 -0.2
v -0.8 0 -0.5
v -0.8 0.1 -0.2
v -0.8 0.1 -0.5
v -0.7 0 0.1
v -0.7 0 -0.2
v -0.7 0.1 0.1
v -0.7 0.1 -0.2
v -0.6 0 0.4
v -0.6 0 0.1
v -0.6 0.1 0.4
v -0.6 0.1 0.1
v -0.5 0 0.7
v -0.5 0 0.4
v -0.5 0.1 0.7
v -0.5 0.1 0.4
v -0.4 0 0.9
v -0.4 0 0.7
v -0.4 0.1 0.9
v -0.4 0.1 0.7
v -0.4 0.1 0.1
v -0.4 0.1 -0.9
v -0.4 0.2 0.1
v -0.4 0.2 -0.9
v -0.3 0 1
v -0.3 0 0.9
v -0.3 0.1 1
v -0.3 0.1 0.9
v -0.1 0.1 0.1
v -0.1 0.1 -0.9
v -0.1 0.2 0.1
v -0.1 0.2 -0.9
v 0.3 0 1
v 0.3 0 0.9
v 0.3 0.1 1
v 0.3 0.1 0.9
v 0.4 0 0.9
v 0.4 0 0.7
v 0.4 0.1 0.9
v 0.4 0.1 0.7
v 0.5 0 0.7
v 0.5 0 0.4
v 0.5 0.1 0.7
v 0.5 0.1 0.4
v 0.6 0 0.4
v 0.6 0 0.1
v 0.6 0.1 0.4
v 0.6 0.1 0.1
v 0.7 0 0.1
v 0.7 0 -0.2
v 0.7 0.1 0.1
v 0.7 0.1 -0.2
v 0.8 0 -0.2
v 0.8 0 -0.5
v 0.8 0.1 -0.2
v 0.8 0.1 -0.5
v 0.9 0 -0.5
v 0.9 0 -0.8
v 0.9 0.1 -0.5
v 0.9 0.1 -0.8
v 1 0 -0.8
v 1 0 -1.1
v 1 0.1 -0.8
v 1 0.1 -1.1
v -0.3 0 1
v -0.3 0.1 1
v -0.2 0 1
v -0.2 0.1 1
v 0.2 0 1
v 0.2 0.1 1
v 0.3 0 1
v 0.3 0.1 1
v -0.4 0 0.9
v -0.4 0.1 0.9
v -0.3 0 0.9
v -0.3 0.1 0.9
v 0.3 0 0.9
v 0.3 0.1 0.9
v 0.4 0 0.9
v 0.4 0.1 0.9
v -0.5 0 0.7
v -0.5 0.1 0.7
v -0.4 0 0.7
v -0.4 0.1 0.7
v 0.4 0 0.7
v 0.4 0.1 0.7
v 0.5 0 0.7
v 0.5 0.1 0.7
v -0.6 0 0.4
v -0.6 0.1 0.4
v -0.5 0 0.4
v -0.5 0.1 0.4
v 0.5 0 0.4
v 0.5 0.1 0.4
v 0.6 0 0.4
v 0.6 0.1 0.4
v -0.7 0 0.1
v -0.7 0.1 0.1
v -0.6 0 0.1
v -0.6 0.1 0.1
v -0.4 0.1 0.1
v -0.4 0.2 0.1
v -0.1 0.1 0.1
v -0.1 0.2 0.1
v 0.6 0 0.1
v 0.6 0.1 0.1
v 0.7 0 0.1
v 0.7 0.1 0.1
v -0.8 0 -0.2
v -0.8 0.1 -0.2
v -0.7 0 -0.2
v -0.7 0.1 -0.2
v 0.7 0 -0.2
v 0.7 0.1 -0.2
v 0.8 0 -0.2
v 0.8 0.1 -0.2
v -0.9 0 -0.5
v -0.9 0.1 -0.5
v -0.8 0 -0.5
v -0.8 0.1 -0.5
v 0.8 0 -0.5
v 0.8 0.1 -0.5
v 0.9 0 -0.5
v 0.9 0.1 -0.5
v -1 0 -0.8
v -1 0.1 -0.8
v -0.9 0 -0.8
v -0.9 0.1 -0.8
v 0.9 0 -0.8
v 0.9 0.1 -0.8
v 1 0 -0.8
v 1 0.1 -0.8
v -0.4 0.1 -0.9
v -0.4 0.2 -0.9
v -0.1 0.1 -0.9
v -0.1 0.2 -0.9
v -1 0 -1.1
v -1 0.1 -1.1
v 1 0 -1.1
v 1 0.1 -1.1
v -0.3 0 1
v -0.2 0 1
v 0.2 0 1
v 0.3 0 1
v -0.4 0 0.9
v -0.3 0 0.9
v -0.2 0 0.9
v -0.1 0 0.9
v 0.2 0 0.9
v 0.3 0 0.9
v 0.4 0 0.9
v -0.5 0 0.7
v -0.4 0 0.7
v 0.4 0 0.7
v 0.5 0 0.7
v -0.4 0 0.6
v -0.3 0 0.6
v 0.3 0 0.6
v 0.4 0 0.6
v -0.6 0 0.4
v -0.5 0 0.4
v -0.4 0 0.4
v 0.4 0 0.4
v 0.5 0 0.4
v 0.6 0 0.4
v -0.7 0 0.1
v -0.6 0 0.1
v -0.5 0 0.1
v 0.5 0 0.1
v 0.6 0 0.1
v 0.7 0 0.1
v -0.8 0 -0.2
v -0.7 0 -0.2
v -0.6 0 -0.2
v 0.6 0 -0.2
v 0.7 0 -0.2
v 0.8 0 -0.2
v -0.9 0 -0.5
v -0.8 0 -0.5
v -0.7 0 -0.5
v 0.7 0 -0.5
v 0.8 0 -0.5
v 0.9 0 -0.5
v -1 0 -0.8
v -0.9 0 -0.8
v -0.8 0 -0.8
v 0.8 0 -0.8
v 0.9 0 -0.8
v 1 0 -0.8
v -0.9 0 -1
v -0.6 0 -1
v -0.4 0 -1
v -0.1 0 -1
v 0.2 0 -1
v 0.4 0 -1
v 0.6 0 -1
v 0.9 0 -1
v -1 0 -1.1
v 1 0 -1.1
v -0.3 0.1 1
v -0.2 0.1 1
v 0.2 0.1 1
v 0.3 0.1 1
v -0.4 0.1 0.9
v -0.3 0.1 0.9
v -0.2 0.1 0.9
v -0.1 0.1 0.9
v 0.2 0.1 0.9
v 0.3 0.1 0.9
v 0.4 0.1 0.9
v -0.5 0.1 0.7
v -0.4 0.1 0.7
v 0.4 0.1 0.7
v 0.5 0.1 0.7
v -0.4 0.1 0.6
v -0.3 0.1 0.6
v 0.3 0.1 0.6
v 0.4 0.1 0.6
v -0.6 0.1 0.4
v -0.5 0.1 0.4
v -0.4 0.1 0.4
v 0.4 0.1 0.4
v 0.5 0.1 0.4
v 0.6 0.1 0.4
v -0.7 0.1 0.1
v -0.6 0.1 0.1
v -0.5 0.1 0.1
v -0.4 0.1 0.1
v -0.1 0.1 0.1
v 0.5 0.1 0.1
v 0.6 0.1 0.1
v 0.7 0.1 0.1
v -0.8 0.1 -0.2
v -0.7 0.1 -0.2
v -0.6 0.1 -0.2
v 0.6 0.1 -0.2
v 0.7 0.1 -0.2
v 0.8 0.1 -0.2
v -0.9 0.1 -0.5
v -0.8 0.1 -0.5
v -0.7 0.1 -0.5
v 0.7 0.1 -0.5
v 0.8 0.1 -0.5
v 0.9 0.1 -0.5
v -1 0.1 -0.8
v -0.9 0.1 -0.8
v -0.8 0.1 -0.8
v 0.8 0.1 -0.8
v 0.9 0.1 -0.8
v 1 0.1 -0.8
v -0.4 0.1 -0.9
v -0.1 0.1 -0.9
v -0.9 0.1 -1
v -0.6 0.1 -1
v -0.4 0.1 -1
v -0.1 0.1 -1
v 0.2 0.1 -1
v 0.4 0.1 -1
v 0.6 0.1 -1
v 0.9 0.1 -1
v -1 0.1 -1.1
v 1 0.1 -1.1
v -0.4 0.2 0.1
v -0.1 0.2 0.1
v -0.4 0.2 -0.9
v -0.1 0.2 -0.9

# faces
f 3/2/1 2/2/1 1/2/1
f 4/2/1 2/2/1 3/2/1
f 7/2/1 6/2/1 5/2/1
f 8/2/1 6/2/1 7/2/1
f 11/2/1 10/2/1 9/2/1
f 12/2/1 10/2/1 11/2/1
f 15/2/1 14/2/1 13/2/1
f 16/2/1 14/2/1 15/2/1
f 19/2/1 18/2/1 17/2/1
f 20/2/1 18/2/1 19/2/1
f 23/2/1 22/2/1 21/2/1
f 24/2/1 22/2/1 23/2/1
f 27/2/1 26/2/1 25/2/1
f 28/2/1 26/2/1 27/2/1
f 31/4/1 30/4/1 29/4/1
f 32/4/1 30/4/1 31/4/1
f 35/2/1 34/2/1 33/2/1
f 36/2/1 34/2/1 35/2/1
f 37/4/2 38/4/2 39/4/2
f 39/4/2 38/4/2 40/4/2
f 41/2/2 42/2/2 43/2/2
f 43/2/2 42/2/2 44/2/2
f 45/2/2 46/2/2 47/2/2
f 47/2/2 46/2/2 48/2/2
f 49/2/2 50/2/2 51/2/2
f 51/2/2 50/2/2 52/2/2
f 53/2/2 54/2/2 55/2/2
f 55/2/2 54/2/2 56/2/2
f 57/2/2 58/2/2 59/2/2
f 59/2/2 58/2/2 60/2/2
f 61/2/2 62/2/2 63/2/2
f 63/2/2 62/2/2 64/2/2
f 65/2/2 66/2/2 67/2/2
f 67/2/2 66/2/2 68/2/2
f 69/2/2 70/2/2 71/2/2
f 71/2/2 70/2/2 72/2/2
f 75/2/3 74/2/3 73/2/3
f 76/2/3 74/2/3 75/2/3
f 77/1/3 76/1/3 75/1/3
f 78/1/3 76/1/3 77/1/3
f 79/2/3 78/2/3 77/2/3
f 80/2/3 78/2/3 79/2/3
f 83/2/3 82/2/3 81/2/3
f 84/2/3 82/2/3 83/2/3
f 87/2/3 86/2/3 85/2/3
f 88/2/3 86/2/3 87/2/3
f 91/2/3 90/2/3 89/2/3
f 92/2/3 90/2/3 91/2/3
f 95/2/3 94/2/3 93/2/3
f 96/2/3 94/2/3 95/2/3
f 99/2/3 98/2/3 97/2/3
f 100/2/3 98/2/3 99/2/3
f 103/2/3 102/2/3 101/2/3
f 104/2/3 102/2/3 103/2/3
f 107/2/3 106/2/3 105/2/3
f 108/2/3 106/2/3 107/2/3
f 111/4/3 110/4/3 109/4/3
f 112/4/3 110/4/3 111/4/3
f 115/2/3 114/2/3 113/2/3
f 116/2/3 114/2/3 115/2/3
f 119/2/3 118/2/3 117/2/3
f 120/2/3 118/2/3 119/2/3
f 123/2/3 122/2/3 121/2/3
f 124/2/3 122/2/3 123/2/3
f 127/2/3 126/2/3 125/2/3
f 128/2/3 126/2/3 127/2/3
f 131/2/3 130/2/3 129/2/3
f 132/2/3 130/2/3 131/2/3
f 135/2/3 134/2/3 133/2/3
f 136/2/3 134/2/3 135/2/3
f 139/2/3 138/2/3 137/2/3
f 140/2/3 138/2/3 139/2/3
f 141/4/4 142/4/4 143/4/4
f 143/4/4 142/4/4 144/4/4
f 145/2/4 146/2/4 147/2/4
f 147/2/4 146/2/4 148/2/4
f 154/2/5 150/2/5 149/2/5
f 155/1/5 151/1/5 150/1/5
f 155/2/5 150/2/5 154/2/5
f 156/1/5 151/1/5 155/1/5
f 157/2/5 152/2/5 151/2/5
f 157/1/5 151/1/5 156/1/5
f 158/2/5 152/2/5 157/2/5
f 161/2/5 154/2/5 153/2/5
f 162/2/5 159/2/5 158/2/5
f 164/2/5 161/2/5 160/2/5
f 164/2/5 154/2/5 161/2/5
f 165/4/5 156/4/5 155/4/5
f 165/2/5 154/2/5 164/2/5
f 165/4/5 155/4/5 154/4/5
f 166/2/5 163/2/5 162/2/5
f 166/2/5 162/2/5 158/2/5
f 166/4/5 158/4/5 157/4/5
f 167/2/5 163/2/5 166/2/5
f 169/2/5 164/2/5 160/2/5
f 170/4/5 165/4/5 164/4/5
f 170/2/5 164/2/5 169/2/5
f 171/2/5 163/2/5 167/2/5
f 171/4/5 167/4/5 166/4/5
f 172/2/5 163/2/5 171/2/5
f 175/2/5 169/2/5 168/2/5
f 176/3/5 170/3/5 169/3/5
f 176/2/5 169/2/5 175/2/5
f 177/2/5 173/2/5 172/2/5
f 177/3/5 172/3/5 171/3/5
f 178/2/5 173/2/5 177/2/5
f 181/2/5 175/2/5 174/2/5
f 182/3/5 176/3/5 175/3/5
f 182/2/5 175/2/5 181/2/5
f 183/2/5 179/2/5 178/2/5
f 183/3/5 178/3/5 177/3/5
f 184/2/5 179/2/5 183/2/5
f 187/2/5 181/2/5 180/2/5
f 188/4/5 182/4/5 181/4/5
f 188/2/5 181/2/5 187/2/5
f 189/2/5 185/2/5 184/2/5
f 189/4/5 184/4/5 183/4/5
f 190/2/5 185/2/5 189/2/5
f 193/2/5 187/2/5 186/2/5
f 194/4/5 188/4/5 187/4/5
f 194/2/5 187/2/5 193/2/5
f 195/2/5 191/2/5 190/2/5
f 195/4/5 190/4/5 189/4/5
f 196/2/5 191/2/5 195/2/5
f 198/2/5 193/2/5 192/2/5
f 198/4/5 194/4/5 193/4/5
f 199/3/5 176/3/5 182/3/5
f 199/4/5 194/4/5 198/4/5
f 199/4/5 182/4/5 188/4/5
f 199/4/5 188/4/5 194/4/5
f 200/4/5 165/4/5 170/4/5
f 200/3/5 176/3/5 199/3/5
f 200/3/5 170/3/5 176/3/5
f 201/4/5 156/4/5 165/4/5
f 201/4/5 165/4/5 200/4/5
f 201/3/5 157/3/5 156/3/5
f 202/4/5 166/4/5 157/4/5
f 202/3/5 157/3/5 201/3/5
f 202/4/5 171/4/5 166/4/5
f 203/3/5 177/3/5 171/3/5
f 203/4/5 171/4/5 202/4/5
f 203/3/5 183/3/5 177/3/5
f 204/4/5 196/4/5 195/4/5
f 204/3/5 183/3/5 203/3/5
f 204/4/5 189/4/5 183/4/5
f 204/4/5 195/4/5 189/4/5
f 205/2/5 197/2/5 196/2/5
f 205/4/5 196/4/5 204/4/5
f 206/2/5 199/2/5 198/2/5
f 206/2/5 200/2/5 199/2/5
f 206/2/5 205/2/5 204/2/5
f 206/2/5 203/2/5 202/2/5
f 206/2/5 202/2/5 201/2/5
f 206/2/5 204/2/5 203/2/5
f 206/2/5 201/2/5 200/2/5
f 206/2/5 198/2/5 192/2/5
f 207/2/5 197/2/5 205/2/5
f 207/2/5 205/2/5 206/2/5
f 208/2/6 209/2/6 213/2/6
f 209/1/6 210/1/6 214/1/6
f 213/2/6 209/2/6 214/2/6
f 214/1/6 210/1/6 215/1/6
f 210/2/6 211/2/6 216/2/6
f 215/1/6 210/1/6 216/1/6
f 216/2/6 211/2/6 217/2/6
f 212/2/6 213/2/6 220/2/6
f 217/2/6 218/2/6 221/2/6
f 219/2/6 220/2/6 223/2/6
f 220/2/6 213/2/6 223/2/6
f 214/4/6 215/4/6 224/4/6
f 223/2/6 213/2/6 224/2/6
f 213/4/6 214/4/6 224/4/6
f 221/2/6 222/2/6 225/2/6
f 217/2/6 221/2/6 225/2/6
f 216/4/6 217/4/6 225/4/6
f 225/2/6 222/2/6 226/2/6
f 219/2/6 223/2/6 228/2/6
f 223/4/6 224/4/6 229/4/6
f 228/2/6 223/2/6 229/2/6
f 226/2/6 222/2/6 230/2/6
f 225/4/6 226/4/6 230/4/6
f 230/2/6 222/2/6 231/2/6
f 227/2/6 228/2/6 234/2/6
f 228/3/6 229/3/6 235/3/6
f 234/2/6 228/2/6 235/2/6
f 229/4/6 224/4/6 236/4/6
f 235/3/6 229/3/6 236/3/6
f 224/4/6 215/4/6 237/4/6
f 236/4/6 224/4/6 237/4/6
f 215/3/6 216/3/6 237/3/6
f 231/2/6 232/2/6 238/2/6
f 230/3/6 231/3/6 238/3/6
f 238/2/6 232/2/6 239/2/6
f 233/2/6 234/2/6 242/2/6
f 234/3/6 235/3/6 243/3/6
f 235/3/6 236/3/6 243/3/6
f 242/2/6 234/2/6 243/2/6
f 238/3/6 239/3/6 244/3/6
f 239/2/6 240/2/6 244/2/6
f 244/2/6 240/2/6 245/2/6
f 241/2/6 242/2/6 248/2/6
f 242/4/6 243/4/6 249/4/6
f 248/2/6 242/2/6 249/2/6
f 245/2/6 246/2/6 250/2/6
f 244/4/6 245/4/6 250/4/6
f 250/2/6 246/2/6 251/2/6
f 247/2/6 248/2/6 254/2/6
f 248/4/6 249/4/6 255/4/6
f 254/2/6 248/2/6 255/2/6
f 251/2/6 252/2/6 256/2/6
f 250/4/6 251/4/6 256/4/6
f 256/2/6 252/2/6 257/2/6
f 243/3/6 236/3/6 259/3/6
f 237/3/6 216/3/6 260/3/6
f 253/2/6 254/2/6 261/2/6
f 254/4/6 255/4/6 261/4/6
f 249/4/6 243/4/6 262/4/6
f 261/4/6 255/4/6 262/4/6
f 243/3/6 259/3/6 262/3/6
f 255/4/6 249/4/6 262/4/6
f 259/4/6 260/4/6 263/4/6
f 262/3/6 259/3/6 263/3/6
f 260/3/6 216/3/6 264/3/6
f 263/4/6 260/4/6 264/4/6
f 216/4/6 225/4/6 265/4/6
f 264/3/6 216/3/6 265/3/6
f 225/4/6 230/4/6 265/4/6
f 230/3/6 238/3/6 266/3/6
f 265/4/6 230/4/6 266/4/6
f 238/3/6 244/3/6 266/3/6
f 250/4/6 256/4/6 267/4/6
f 266/3/6 244/3/6 267/3/6
f 256/4/6 257/4/6 267/4/6
f 244/4/6 250/4/6 267/4/6
f 257/2/6 258/2/6 268/2/6
f 267/4/6 257/4/6 268/4/6
f 253/2/6 261/2/6 269/2/6
f 263/2/6 264/2/6 269/2/6
f 267/2/6 268/2/6 269/2/6
f 266/2/6 267/2/6 269/2/6
f 261/2/6 262/2/6 269/2/6
f 265/2/6 266/2/6 269/2/6
f 264/2/6 265/2/6 269/2/6
f 262/2/6 263/2/6 269/2/6
f 268/2/6 258/2/6 270/2/6
f 269/2/6 268/2/6 270/2/6
f 271/4/6 272/4/6 273/4/6
f 273/4/6 272/4/6 274/4/6
